<?xml version="1.0" encoding="UTF-8" standalone="no"?>
<!DOCTYPE svg PUBLIC "-//W3C//DTD SVG 1.1//EN" "http://www.w3.org/Graphics/SVG/1.1/DTD/svg11.dtd">
<!-- Created with Vectornator (http://vectornator.io/) -->
<svg height="100%" stroke-miterlimit="10" style="fill-rule:nonzero;clip-rule:evenodd;stroke-linecap:round;stroke-linejoin:round;" version="1.1" viewBox="0 0 1024 1024" width="100%" xml:space="preserve" xmlns="http://www.w3.org/2000/svg" xmlns:vectornator="http://vectornator.io" xmlns:xlink="http://www.w3.org/1999/xlink">
<defs>
<linearGradient gradientTransform="matrix(1 0 0 0.964739 8.87257 12.5596)" gradientUnits="userSpaceOnUse" id="LinearGradient" x1="510.38" x2="503.988" y1="-133.45" y2="932.172">
<stop offset="0" stop-color="#2963c6"/>
<stop offset="0.67562" stop-color="#379efe"/>
</linearGradient>
<linearGradient gradientTransform="matrix(1 0 0 1 18 0)" gradientUnits="userSpaceOnUse" id="LinearGradient_2" x1="278.385" x2="846.092" y1="493.392" y2="559.058">
<stop offset="0" stop-color="#ffce00"/>
<stop offset="1" stop-color="#ff8d00"/>
</linearGradient>
<linearGradient gradientTransform="matrix(1.30545 0 0 1.30545 -132.195 -156.067)" gradientUnits="userSpaceOnUse" id="LinearGradient_3" x1="278.385" x2="846.092" y1="493.392" y2="559.058">
<stop offset="0" stop-color="#ffce00"/>
<stop offset="1" stop-color="#ff8d00"/>
</linearGradient>
</defs>
<clipPath id="ArtboardFrame">
<rect height="1024" width="1024" x="0" y="0"/>
</clipPath>
<g id="IconSmaller" vectornator:layerName="IconSmaller">
<path d="M517.755 353.544L245.788 490.782L331.981 656.472L854.156 633.878C905.202 631.368 921.938 711.702 861.203 719.038L309.929 773.478C281.634 775.481 259.376 770.584 243.301 740.459L123.781 497.402C115.634 479.071 117.486 454.63 140.033 440.155L482.628 257.306C482.628 257.306 508.679 241.186 534.101 251.392L867.101 410.392C909.81 433.329 882.532 496.534 833.822 477.761L517.755 353.544Z" fill="black" fill-rule="nonzero" opacity="1" stroke="none"/>
</g>
</svg>
